# xmcd
#
# Track frame offsets: 
#        150
#        16062
#        30289
#        44183
#        57674
#        71108
#        86806
#        103608
#        120481
#        137278
#        151271
#        165594
#        176693
#        191966
#
# Disc length: 2702 seconds
#
# Revision: 0
# Processed by: cddbd v1.5.2PL0 Copyright (c) Steve Scherf et al.
# Submitted via: ExactAudioCopy v0.99pb5
#
DISCID=bc0a8c0e
DTITLE=Neisha - Krila
DYEAR=2010
DGENRE=Polka
TTITLE0=Pridejo casi
TTITLE1=Tiste lepe dni
TTITLE2=Krila
TTITLE3=Sanje na drazbi
TTITLE4=Alarm srca
TTITLE5=Veter
TTITLE6=Najin ples
TTITLE7=Vzemi me
TTITLE8=Krila2
TTITLE9=Igra custev
TTITLE10=Snow must go
TTITLE11=Mesto
TTITLE12=Nekaj nujnega
TTITLE13=Obcutek: Bonus Track
EXTD=
EXTT0=
EXTT1=
EXTT2=
EXTT3=
EXTT4=
EXTT5=
EXTT6=
EXTT7=
EXTT8=
EXTT9=
EXTT10=
EXTT11=
EXTT12=
EXTT13=
PLAYORDER=
